<?xml version="1.0" encoding="utf-8"?>
<!-- Generator: Adobe Illustrator 26.5.1, SVG Export Plug-In . SVG Version: 6.00 Build 0)  -->
<svg version="1.1" id="Layer_1" xmlns="http://www.w3.org/2000/svg" xmlns:xlink="http://www.w3.org/1999/xlink" x="0px" y="0px"
	 viewBox="0 0 1920 1080" style="enable-background:new 0 0 1920 1080;" xml:space="preserve">
<style type="text/css">
	.st0{fill:#70B5FA;}
	.st1{fill:#E7EB8E;}
	.st2{fill:#39710C;}
</style>
<circle class="st0" cx="990" cy="550" r="447"/>
<path class="st1" d="M1173.07,317.66c-8.24-55.26-30.72-162.36-47.02-158.56c-12.19,2.84,2.64,62.19-18.48,168.02
	c-3.73,18.67-8.18,36.84-1.09,50.47c11.58,22.25,49.6,24.07,63.99,0.42C1178.27,365.19,1177.52,347.5,1173.07,317.66z"/>
<path class="st1" d="M1016.16,347.61c-28.49-48.06-89.72-138.76-103.39-129.09c-10.22,7.23,25.92,56.6,46.3,162.57
	c3.6,18.7,6.32,37.2,18.04,47.15c19.12,16.23,55.02,3.56,59.42-23.76C1038.92,389.67,1031.55,373.56,1016.16,347.61z"/>
<path class="st1" d="M848.92,412.03c-28.49-48.06-89.72-138.76-103.39-129.09c-10.22,7.23,25.92,56.6,46.3,162.57
	c3.6,18.7,6.32,37.2,18.04,47.15c19.12,16.23,55.02,3.56,59.42-23.76C871.68,454.09,864.31,437.98,848.92,412.03z"/>
<path class="st1" d="M726.6,528.44c-28.49-48.06-89.72-138.76-103.39-129.09c-10.22,7.23,25.92,56.6,46.3,162.57
	c3.6,18.7,6.32,37.2,18.04,47.15c19.12,16.23,55.02,3.56,59.42-23.76C749.36,570.5,741.99,554.4,726.6,528.44z"/>
<g>
	<path class="st1" d="M987.09,530.55c16.18,43.44-35.78,108.08-81.87,139.27c-7.56,5.12-24.75,15.95-49.92,24.03
		c-73.69,23.67-187.17,14.67-206.52-37.25c-20.63-55.38,38.37-128.49,131.8-163.3C873.99,458.5,966.45,475.17,987.09,530.55z"/>
</g>
<g>
	
		<ellipse transform="matrix(0.9371 -0.3491 0.3491 0.9371 -107.9191 384.7441)" class="st1" cx="1013.35" cy="491.75" rx="296.55" ry="175.79"/>
</g>
<g>
	
		<ellipse transform="matrix(0.9371 -0.3491 0.3491 0.9371 -146.6584 313.8455)" class="st2" cx="797.3" cy="563.76" rx="155.19" ry="92"/>
</g>
<g>
	
		<ellipse transform="matrix(0.9371 -0.3491 0.3491 0.9371 -98.9699 374.7585)" class="st2" cx="990.12" cy="461.93" rx="254.95" ry="151.13"/>
</g>
<path class="st1" d="M653.74,666.98"/>
<path class="st1" d="M725.96,738.38c1.63,55.84,11.25,164.86,27.89,163.02c12.44-1.38,4.75-62.07,38.28-164.65
	c5.91-18.1,12.49-35.61,7.07-49.99c-8.86-23.47-46.4-29.78-63.49-8.01C726.43,690.56,725.07,708.22,725.96,738.38z"/>
<path class="st1" d="M888.15,722.97c22.59,51.1,72.64,148.42,87.35,140.43c11-5.97-19.03-59.27-26.7-166.92
	c-1.35-18.99-1.87-37.69-12.32-48.96c-17.06-18.39-54.21-10.06-61.82,16.55C870.55,678.52,875.95,695.38,888.15,722.97z"/>
<path class="st1" d="M1061.85,678.84c22.59,51.1,72.64,148.42,87.35,140.43c11-5.97-19.03-59.27-26.7-166.92
	c-1.35-18.99-1.87-37.69-12.32-48.96c-17.06-18.39-54.21-10.06-61.82,16.55C1044.25,634.38,1049.65,651.24,1061.85,678.84z"/>
<path class="st1" d="M1197.11,585.52c22.59,51.1,72.64,148.42,87.35,140.43c11-5.97-19.03-59.27-26.7-166.92
	c-1.35-18.99-1.87-37.69-12.32-48.96c-17.06-18.39-54.21-10.06-61.82,16.55C1179.5,541.06,1184.91,557.92,1197.11,585.52z"/>
</svg>
